# xmcd
#
# Track frame offsets:
#	150
#	21540
#	32210
#	45322
#	60770
#	72852
#	83120
#	95257
#	110040
#	126150
#	138282
#	151762
#	169920
#	181932
#
# Disc length: 2553 seconds
#
# Revision: 0
# Processed by: cddbd v1.5.1PL0 Copyright (c) Steve Scherf et al.
# Submitted via: dBpowerAMP V4.0
#
DISCID=b009f70e
DTITLE=Skiffle Train - Overland
DYEAR=1995
DGENRE=Country
TTITLE0=Wabash Cannon Ball
TTITLE1=Lonesome Me
TTITLE2=Tom Doolie
TTITLE3=City Of New Orleans
TTITLE4=Lord Of The Dance
TTITLE5=Ham and Eggs
TTITLE6=MTA - Song
TTITLE7=Kansas City Blues
TTITLE8=Take This Hammer
TTITLE9=Tennessee Flat Top Box
TTITLE10=Finnegans Wake
TTITLE11=Blue Train
TTITLE12=Irish Soldier Laddie
TTITLE13=Louisiana Saturday Night
EXTD=
EXTT0=
EXTT1=
EXTT2=
EXTT3=
EXTT4=
EXTT5=
EXTT6=
EXTT7=
EXTT8=
EXTT9=
EXTT10=
EXTT11=
EXTT12=
EXTT13=
PLAYORDER=
